<?xml version="1.0" encoding="UTF-8" standalone="no"?>
<svg
   width="128"
   zoomAndPan="magnify"
   viewBox="0 0 96 95.999999"
   height="128"
   preserveAspectRatio="xMidYMid"
   version="1.0"
   id="svg9"
   sodipodi:docname="c.svg"
   inkscape:version="1.3.2 (091e20ef0f, 2023-11-25)"
   inkscape:export-filename="c.png"
   inkscape:export-xdpi="96"
   inkscape:export-ydpi="96"
   xmlns:inkscape="http://www.inkscape.org/namespaces/inkscape"
   xmlns:sodipodi="http://sodipodi.sourceforge.net/DTD/sodipodi-0.dtd"
   xmlns="http://www.w3.org/2000/svg"
   xmlns:svg="http://www.w3.org/2000/svg">
  <sodipodi:namedview
     id="namedview9"
     pagecolor="#505050"
     bordercolor="#eeeeee"
     borderopacity="1"
     inkscape:showpageshadow="0"
     inkscape:pageopacity="0"
     inkscape:pagecheckerboard="0"
     inkscape:deskcolor="#505050"
     inkscape:zoom="0.48177083"
     inkscape:cx="455.61081"
     inkscape:cy="539.67568"
     inkscape:window-width="1920"
     inkscape:window-height="1019"
     inkscape:window-x="0"
     inkscape:window-y="30"
     inkscape:window-maximized="1"
     inkscape:current-layer="g6" />
  <defs
     id="defs3">
    <g
       id="g1" />
    <clipPath
       id="d10add3c16">
      <path
         d="m 593.5,261.375 h 288 v 288 h -288 z m 0,0"
         clip-rule="nonzero"
         id="path1" />
    </clipPath>
    <clipPath
       id="e29b19c45a">
      <path
         d="m 737.5,261.375 c -79.52734,0 -144,64.47266 -144,144 0,79.52734 64.47266,144 144,144 79.52734,0 144,-64.47266 144,-144 0,-79.52734 -64.47266,-144 -144,-144 z m 0,0"
         clip-rule="nonzero"
         id="path2" />
    </clipPath>
    <clipPath
       id="dad9b7333b">
      <path
         d="m 766.05078,303.60156 h 63.75 v 63 h -63.75 z m 0,0"
         clip-rule="nonzero"
         id="path3" />
    </clipPath>
  </defs>
  <g
     clip-path="url(#d10add3c16)"
     id="g5"
     transform="matrix(0.33333333,0,0,0.33333333,-197.83333,-87.124999)"
     style="stroke-width:3">
    <g
       clip-path="url(#e29b19c45a)"
       id="g4"
       style="stroke-width:3">
      <path
         fill="#1d232a"
         d="m 593.5,261.375 h 288 v 288 h -288 z m 0,0"
         fill-opacity="1"
         fill-rule="nonzero"
         id="path4"
         style="stroke-width:3" />
    </g>
  </g>
  <g
     fill="#a5acba"
     fill-opacity="1"
     id="g8">
    <g
       transform="translate(641.19525,478.5)"
       id="g7">
      <g
         id="g6">
        <path
           d="m -615.55725,-419.76042 c 0,-6.43359 2.35026,-12.29817 7.05208,-17.59375 4.70443,-5.29427 9.82813,-7.94271 15.3698,-7.94271 2.77083,0 5.04947,0.72266 6.83854,2.16667 1.79166,1.44141 2.6875,3.25781 2.6875,5.44792 0,1.58724 -0.44792,2.87239 -1.34375,3.85417 -0.89584,0.98307 -1.96354,1.47395 -3.20313,1.47395 -0.95182,0 -1.69531,-0.28125 -2.22916,-0.84375 -0.53516,-0.5651 -0.80209,-1.23698 -0.80209,-2.01562 0,-0.11458 0.0208,-0.27214 0.0625,-0.47396 0.0443,-0.20443 0.13802,-0.52865 0.28125,-0.97396 0.14584,-0.44791 0.34896,-0.84505 0.60938,-1.19271 0.26041,-0.34635 0.69922,-0.68489 1.31771,-1.01562 0.62109,-0.33333 1.35026,-0.55729 2.1875,-0.67188 -0.95183,-2.53776 -3.0573,-3.80729 -6.31771,-3.80729 -2.08073,0 -4.15104,0.76432 -6.21354,2.29167 -2.0625,1.52864 -3.85938,3.72135 -5.39063,6.57812 -1.125,2.13542 -2.1862,5.1237 -3.18229,8.96355 -0.99349,3.83723 -1.48958,6.9401 -1.48958,9.30729 0,2.71224 0.58984,4.90494 1.77083,6.57812 1.18359,1.67448 2.91667,2.51042 5.19792,2.51042 1.01041,0 2.14843,-0.10026 3.41666,-0.30208 1.27084,-0.20443 3.1888,-1.02735 5.75521,-2.46875 2.56901,-1.44402 4.83594,-3.40625 6.80208,-5.88542 0.51693,-0.66667 0.90625,-1 1.16667,-1 0.34635,0 0.66406,0.18099 0.95313,0.54167 0.28776,0.36197 0.43229,0.65885 0.43229,0.89062 0,0.57682 -0.72266,1.63802 -2.16667,3.18229 -1.44141,1.54167 -3.69792,3.09896 -6.77083,4.67188 -3.07292,1.57291 -6.32683,2.35937 -9.76042,2.35937 -3.89583,0 -7.04167,-1.34114 -9.4375,-4.02604 -2.39583,-2.68359 -3.59375,-6.21875 -3.59375,-10.60417 z m 0,0"
           id="path5"
           style="stroke-width:1" />
      </g>
    </g>
  </g>
  <g
     clip-path="url(#dad9b7333b)"
     id="g9"
     transform="matrix(0.33333333,0,0,0.33333333,-197.83333,-87.124999)"
     style="stroke-width:3">
    <path
       fill="#a5acba"
       d="m 784.96875,319.31641 -6.41797,-6.41797 c -0.88281,-0.88672 -2.3125,-0.88672 -3.19531,0 -0.88672,0.88281 -0.88672,2.3125 0,3.19531 l 6.41797,6.42187 c 0.43359,0.44922 1.01953,0.67969 1.60937,0.67969 0.56641,0 1.15625,-0.23047 1.58594,-0.67969 0.88672,-0.88281 0.88672,-2.3125 0,-3.19921 z m -7.57422,13.76953 h -9.07422 c -1.24609,0 -2.26953,1.01953 -2.26953,2.26953 0,1.25 1.02344,2.26953 2.26953,2.26953 h 9.07422 c 1.25,0 2.26953,-1.01953 2.26953,-2.26953 0,-1.25 -1.02344,-2.26953 -2.26953,-2.26953 z m 7.57422,15.10937 c -0.88281,-0.88672 -2.3125,-0.88672 -3.19531,0 l -6.41797,6.41797 c -0.88672,0.88281 -0.88672,2.3125 0,3.19531 0.45312,0.4336 1.01953,0.65625 1.60937,0.65625 0.56641,0 1.15625,-0.22656 1.58594,-0.65625 l 6.41797,-6.41797 c 0.88672,-0.88281 0.88672,-2.3125 0,-3.19531 z m 12.83984,5.3086 c -1.25,0 -2.26953,1.01953 -2.26953,2.26953 v 9.07422 c 0,1.24609 1.01953,2.26953 2.26953,2.26953 1.25,0 2.26953,-1.02344 2.26953,-2.26953 v -9.07422 c 0,-1.25 -1.01953,-2.26953 -2.26953,-2.26953 z m 22.45703,1.10937 -6.41796,-6.41797 c -0.88672,-0.88672 -2.3125,-0.88672 -3.19922,0 -0.88282,0.88281 -0.88282,2.3086 0,3.19531 l 6.42187,6.41797 c 0.42969,0.4336 1.01953,0.65625 1.58594,0.65625 0.58984,0 1.15625,-0.22656 1.60937,-0.65625 0.88282,-0.8789 0.88282,-2.3125 0,-3.19531 z m 7.02735,-21.52734 h -9.07422 c -1.24609,0 -2.26953,1.01953 -2.26953,2.26953 0,1.25 1.02344,2.26953 2.26953,2.26953 h 9.07422 c 1.25,0 2.26953,-1.01953 2.26953,-2.26953 0,-1.25 -1.01953,-2.26953 -2.26953,-2.26953 z m -7.02735,-20.1875 c -0.88671,-0.88672 -2.3125,-0.88672 -3.19531,0 l -6.42187,6.41797 c -0.88282,0.88671 -0.88282,2.3125 0,3.19921 0.43359,0.44922 1.02343,0.67969 1.58984,0.67969 0.58594,0 1.17969,-0.23047 1.60938,-0.67969 l 6.41796,-6.42187 c 0.88282,-0.87891 0.88282,-2.3125 0,-3.19531 z m -22.45703,-9.29688 c -1.25,0 -2.26953,1.01953 -2.26953,2.26953 v 9.07032 c 0,1.25 1.01953,2.26953 2.26953,2.26953 1.25,0 2.26953,-1.01953 2.26953,-2.26953 v -9.07032 c 0,-1.25 -1.01953,-2.26953 -2.26953,-2.26953 z m 15.87891,31.75391 c 0,8.77734 -7.10156,15.8789 -15.87891,15.8789 -8.77734,0 -15.8789,-7.10156 -15.8789,-15.8789 0,-8.77735 7.10156,-15.87891 15.8789,-15.87891 8.77735,0 15.87891,7.10156 15.87891,15.87891 z m 0,0"
       fill-opacity="1"
       fill-rule="nonzero"
       id="path8"
       style="stroke-width:3" />
  </g>
</svg>
